<svg id="visual" viewBox="0 0 900 300" width="900" height="300" xmlns="http://www.w3.org/2000/svg" xmlns:xlink="http://www.w3.org/1999/xlink" version="1.1"><rect x="0" y="0" width="900" height="300" fill="#1e1e1e"></rect><path d="M0 112L16.7 113C33.3 114 66.7 116 100 113.7C133.3 111.3 166.7 104.7 200 97.3C233.3 90 266.7 82 300 79.5C333.3 77 366.7 80 400 86.2C433.3 92.3 466.7 101.7 500 101.2C533.3 100.7 566.7 90.3 600 91.5C633.3 92.7 666.7 105.3 700 110.5C733.3 115.7 766.7 113.3 800 112.8C833.3 112.3 866.7 113.7 883.3 114.3L900 115L900 0L883.3 0C866.7 0 833.3 0 800 0C766.7 0 733.3 0 700 0C666.7 0 633.3 0 600 0C566.7 0 533.3 0 500 0C466.7 0 433.3 0 400 0C366.7 0 333.3 0 300 0C266.7 0 233.3 0 200 0C166.7 0 133.3 0 100 0C66.7 0 33.3 0 16.7 0L0 0Z" fill="#333333"></path><path d="M0 75L16.7 74.2C33.3 73.3 66.7 71.7 100 69.2C133.3 66.7 166.7 63.3 200 67.3C233.3 71.3 266.7 82.7 300 83.3C333.3 84 366.7 74 400 72.7C433.3 71.3 466.7 78.7 500 83.2C533.3 87.7 566.7 89.3 600 85.2C633.3 81 666.7 71 700 64.7C733.3 58.3 766.7 55.7 800 60.5C833.3 65.3 866.7 77.7 883.3 83.8L900 90L900 0L883.3 0C866.7 0 833.3 0 800 0C766.7 0 733.3 0 700 0C666.7 0 633.3 0 600 0C566.7 0 533.3 0 500 0C466.7 0 433.3 0 400 0C366.7 0 333.3 0 300 0C266.7 0 233.3 0 200 0C166.7 0 133.3 0 100 0C66.7 0 33.3 0 16.7 0L0 0Z" fill="#717171"></path><path d="M0 60L16.7 61.7C33.3 63.3 66.7 66.7 100 62.2C133.3 57.7 166.7 45.3 200 41.8C233.3 38.3 266.7 43.7 300 48.5C333.3 53.3 366.7 57.7 400 57.2C433.3 56.7 466.7 51.3 500 50.2C533.3 49 566.7 52 600 50.2C633.3 48.3 666.7 41.7 700 40C733.3 38.3 766.7 41.7 800 44.3C833.3 47 866.7 49 883.3 50L900 51L900 0L883.3 0C866.7 0 833.3 0 800 0C766.7 0 733.3 0 700 0C666.7 0 633.3 0 600 0C566.7 0 533.3 0 500 0C466.7 0 433.3 0 400 0C366.7 0 333.3 0 300 0C266.7 0 233.3 0 200 0C166.7 0 133.3 0 100 0C66.7 0 33.3 0 16.7 0L0 0Z" fill="#b5b5b5"></path><path d="M0 43L16.7 38.8C33.3 34.7 66.7 26.3 100 23.3C133.3 20.3 166.7 22.7 200 22.5C233.3 22.3 266.7 19.7 300 22.5C333.3 25.3 366.7 33.7 400 37.5C433.3 41.3 466.7 40.7 500 40.2C533.3 39.7 566.7 39.3 600 38C633.3 36.7 666.7 34.3 700 31C733.3 27.7 766.7 23.3 800 22.2C833.3 21 866.7 23 883.3 24L900 25L900 0L883.3 0C866.7 0 833.3 0 800 0C766.7 0 733.3 0 700 0C666.7 0 633.3 0 600 0C566.7 0 533.3 0 500 0C466.7 0 433.3 0 400 0C366.7 0 333.3 0 300 0C266.7 0 233.3 0 200 0C166.7 0 133.3 0 100 0C66.7 0 33.3 0 16.7 0L0 0Z" fill="#ffffff"></path></svg>